<svg width="411" height="392" viewBox="0 0 411 392" fill="none" xmlns="http://www.w3.org/2000/svg">
<rect x="1.41846" y="0.5" width="408.163" height="391" rx="4.5" stroke="#8A38F5" stroke-dasharray="10 5"/>
<path d="M340.411 79V118C340.411 155.003 310.414 185 273.411 185H249.821C247.66 185 245.62 184.002 244.294 182.295L211.62 140.236C208.041 135.63 201.093 135.593 197.465 140.161L163.958 182.354C162.63 184.025 160.612 185 158.477 185H137.589C100.586 185 70.5889 155.003 70.5889 118V79C70.5889 46.9676 96.5566 21.0003 128.589 21L282.411 21C314.444 21 340.411 46.9675 340.411 79Z" stroke="#202020" stroke-opacity="0.9" stroke-width="2"/>
<path d="M358.778 79V118C358.778 155.003 328.781 185 291.778 185L119.223 185C82.2201 185 52.2231 155.003 52.2231 118V79C52.2231 46.9676 78.1907 21.0001 110.223 21L300.778 21C332.81 21 358.778 46.9675 358.778 79Z" stroke="#202020" stroke-opacity="0.9" stroke-width="2"/>
<path d="M334.065 29.1714V29.1714C365.002 29.1714 390.082 54.2512 390.082 85.1887V114.383C390.082 148.871 362.124 176.829 327.636 176.829V176.829" stroke="#202020" stroke-opacity="0.9" stroke-width="2"/>
<path d="M76.9358 29.1714V29.1714C45.9983 29.1714 20.9185 54.2512 20.9185 85.1887V114.383C20.9185 148.871 48.8763 176.829 83.364 176.829V176.829" stroke="#202020" stroke-opacity="0.9" stroke-width="2"/>
<path d="M327.555 105.914C327.555 138.449 301.18 164.823 268.646 164.823H244.967C243.166 164.823 241.435 164.129 240.133 162.886L210.361 134.462C206.911 131.168 201.489 131.138 198.003 134.395L167.44 162.938C166.144 164.149 164.436 164.823 162.662 164.823H141.437C108.902 164.823 82.5275 138.449 82.5273 105.914C82.5273 77.7585 105.352 54.9336 133.508 54.9336L276.574 54.9336L277.233 54.9375C305.085 55.2902 327.555 77.9784 327.555 105.914Z" stroke="#202020" stroke-opacity="0.9" stroke-width="2"/>
<path d="M294.496 102.542C294.496 120.223 280.143 134.558 262.436 134.558C244.729 134.558 230.376 120.222 230.376 102.542C230.376 84.8605 244.729 70.525 262.436 70.5249C280.143 70.5249 294.496 84.8605 294.496 102.542Z" stroke="#202020" stroke-opacity="0.9" stroke-width="2"/>
<path d="M302.76 102.541C302.76 124.781 284.708 142.812 262.436 142.812C240.164 142.812 222.112 124.781 222.112 102.541C222.112 80.3014 240.164 62.2705 262.436 62.2705C284.708 62.2705 302.76 80.3014 302.76 102.541Z" stroke="#202020" stroke-opacity="0.9" stroke-width="2"/>
<path d="M178.788 102.542C178.788 120.223 164.435 134.558 146.728 134.558C129.021 134.558 114.668 120.222 114.668 102.542C114.668 84.8605 129.021 70.525 146.728 70.5249C164.435 70.5249 178.788 84.8605 178.788 102.542Z" stroke="#202020" stroke-opacity="0.9" stroke-width="2"/>
<path d="M187.052 102.541C187.052 124.781 169 142.812 146.728 142.812C124.456 142.812 106.404 124.781 106.404 102.541C106.404 80.3014 124.456 62.2705 146.728 62.2705C169 62.2705 187.052 80.3014 187.052 102.541Z" stroke="#202020" stroke-opacity="0.9" stroke-width="2"/>
<path d="M340.411 265V304C340.411 341.003 310.414 371 273.411 371H249.821C247.66 371 245.62 370.002 244.294 368.295L211.62 326.236C208.041 321.63 201.093 321.593 197.465 326.161L163.958 368.354C162.63 370.025 160.612 371 158.477 371H137.589C100.586 371 70.5889 341.003 70.5889 304V265C70.5889 232.968 96.5566 207 128.589 207H282.411C314.444 207 340.411 232.967 340.411 265Z" stroke="#B4EAFB" stroke-width="2"/>
<path d="M358.778 265V304C358.778 341.003 328.781 371 291.778 371H119.223C82.2201 371 52.2231 341.003 52.2231 304V265C52.2231 232.968 78.1907 207 110.223 207L300.778 207C332.81 207 358.778 232.967 358.778 265Z" stroke="#B4EAFB" stroke-width="2"/>
<path d="M334.065 215.171V215.171C365.002 215.171 390.082 240.251 390.082 271.189V300.383C390.082 334.871 362.124 362.829 327.636 362.829V362.829" stroke="#B4EAFB" stroke-width="2"/>
<path d="M76.9358 215.171V215.171C45.9983 215.171 20.9185 240.251 20.9185 271.189V300.383C20.9185 334.871 48.8763 362.829 83.364 362.829V362.829" stroke="#B4EAFB" stroke-width="2"/>
<path d="M327.555 291.914C327.555 324.449 301.18 350.823 268.646 350.823H244.967C243.166 350.823 241.435 350.129 240.133 348.886L210.361 320.462C206.911 317.168 201.489 317.138 198.003 320.395L167.44 348.938C166.144 350.149 164.436 350.823 162.662 350.823H141.437C108.902 350.823 82.5275 324.449 82.5273 291.914C82.5273 263.759 105.352 240.934 133.508 240.934H276.574L277.233 240.938C305.085 241.29 327.555 263.978 327.555 291.914Z" stroke="#B4EAFB" stroke-width="2"/>
<path d="M294.496 288.542C294.496 306.223 280.143 320.558 262.436 320.558C244.729 320.558 230.376 306.222 230.376 288.542C230.376 270.861 244.729 256.525 262.436 256.525C280.143 256.525 294.496 270.86 294.496 288.542Z" stroke="#B4EAFB" stroke-width="2"/>
<path d="M302.76 288.541C302.76 310.781 284.708 328.812 262.436 328.812C240.164 328.812 222.112 310.781 222.112 288.541C222.112 266.301 240.164 248.271 262.436 248.271C284.708 248.271 302.76 266.301 302.76 288.541Z" stroke="#B4EAFB" stroke-width="2"/>
<path d="M178.788 288.542C178.788 306.223 164.435 320.558 146.728 320.558C129.021 320.558 114.668 306.222 114.668 288.542C114.668 270.861 129.021 256.525 146.728 256.525C164.435 256.525 178.788 270.86 178.788 288.542Z" stroke="#B4EAFB" stroke-width="2"/>
<path d="M187.052 288.541C187.052 310.781 169 328.812 146.728 328.812C124.456 328.812 106.404 310.781 106.404 288.541C106.404 266.301 124.456 248.271 146.728 248.271C169 248.271 187.052 266.301 187.052 288.541Z" stroke="#B4EAFB" stroke-width="2"/>
</svg>
