<svg width="780" height="920" viewBox="0 0 780 920" fill="none" xmlns="http://www.w3.org/2000/svg">
<rect x="0.5" y="0.5" width="779" height="919" rx="4.5" stroke="#8A38F5" stroke-dasharray="10 5"/>
<path d="M673.281 433.493H681.956C684.463 433.493 686.496 431.461 686.496 428.954V427.718C686.496 425.894 685.016 424.415 683.192 424.415V424.415" stroke="#222222" stroke-width="2"/>
<path d="M107.544 433.493H98.8695C96.3625 433.493 94.3302 431.461 94.3302 428.954V427.718C94.3302 425.894 95.8092 424.415 97.6337 424.415V424.415" stroke="#222222" stroke-width="2"/>
<rect x="121.759" y="47.4106" width="535.656" height="356.196" stroke="#222222" stroke-width="2"/>
<rect x="96.9819" y="21" width="586.862" height="409.843" rx="12" stroke="#222222" stroke-width="2"/>
<rect x="21" y="433.668" width="738" height="15.3321" rx="7.66603" stroke="#222222" stroke-width="2"/>
<path d="M269.563 433.668H509.58C510.608 433.668 510.967 435.033 510.072 435.539L500.676 440.846C498.875 441.863 496.842 442.397 494.774 442.397H283.182C280.862 442.397 278.591 441.725 276.646 440.461L269.019 435.507C268.184 434.965 268.568 433.668 269.563 433.668Z" stroke="#222222" stroke-width="2"/>
<path d="M673.281 883.493H681.956C684.463 883.493 686.496 881.461 686.496 878.954V877.718C686.496 875.894 685.016 874.415 683.192 874.415V874.415" stroke="#AEECFF" stroke-width="2"/>
<path d="M107.544 883.493H98.8695C96.3625 883.493 94.3302 881.461 94.3302 878.954V877.718C94.3302 875.894 95.8092 874.415 97.6337 874.415V874.415" stroke="#AEECFF" stroke-width="2"/>
<rect x="121.759" y="497.411" width="535.656" height="356.196" stroke="#AEECFF" stroke-width="2"/>
<rect x="96.9819" y="471" width="586.862" height="409.843" rx="12" stroke="#AEECFF" stroke-width="2"/>
<rect x="21" y="883.668" width="738" height="15.3321" rx="7.66603" stroke="#AEECFF" stroke-width="2"/>
<path d="M269.563 883.668H509.58C510.608 883.668 510.967 885.033 510.072 885.539L500.676 890.846C498.875 891.863 496.842 892.397 494.774 892.397H283.182C280.862 892.397 278.591 891.725 276.646 890.461L269.019 885.507C268.184 884.965 268.568 883.668 269.563 883.668Z" stroke="#AEECFF" stroke-width="2"/>
</svg>
